<?xml version="1.0" encoding="UTF-8" standalone="no" ?>
<!DOCTYPE svg PUBLIC "-//W3C//DTD SVG 1.1//EN" "http://www.w3.org/Graphics/SVG/1.1/DTD/svg11.dtd">
<svg xmlns="http://www.w3.org/2000/svg" xmlns:xlink="http://www.w3.org/1999/xlink" version="1.1" width="500" height="500" viewBox="0 0 500 500" xml:space="preserve">
<desc>Created with Fabric.js 5.3.0</desc>
<defs>
</defs>
<g transform="matrix(0.677115643 0 0 0.677115643 361.0146900555 149.7969935478)" id="SokQRVdl8C7HNygGEmHGB"  >
<path style="stroke: rgb(0,0,0); stroke-width: 1; stroke-dasharray: none; stroke-linecap: butt; stroke-dashoffset: 0; stroke-linejoin: miter; stroke-miterlimit: 4; fill: rgb(255,255,255); fill-opacity: 0; fill-rule: nonzero; opacity: 1;" vector-effect="non-scaling-stroke"  transform=" translate(0, 0)" d="M 0 0" stroke-linecap="round" />
</g>
<g transform="matrix(1.0809665359 0 0 2.1840756057 252.3540963626 195.9035021871)" id="n5SBDVYsQYSUkAzSJAfNU"  >
<path style="stroke: rgb(134,86,125); stroke-width: 0; stroke-dasharray: none; stroke-linecap: butt; stroke-dashoffset: 0; stroke-linejoin: miter; stroke-miterlimit: 4; fill: rgb(247,216,47); fill-rule: nonzero; opacity: 1;" vector-effect="non-scaling-stroke"  transform=" translate(0, 0)" d="M -26.86404 -20.32947 C -28.29252 -20.33811 -29.669349999999998 -20.06532 -30.69119 -19.57121 C -31.71303 -19.077090000000002 -32.29606 -18.40219 -32.31183 -17.69518 L -32.67973 -1.2001799999999996 C -32.67973 -1.2001799999999996 -32.81855 16.65849 -32.25234 16.72927 C -30.875579999999996 16.90136 -26.40394 18.66045 -23.664139999999996 19.70638 L -23.664139999999996 19.70638 C -21.463549999999998 20.54646 -18.372099999999996 20.50355 -16.270129999999995 19.60373 L -13.319049999999994 18.341649999999998 L -13.319049999999994 18.341649999999998 C -11.154359999999993 17.415879999999998 -7.944879999999993 17.41671 -5.782139999999994 18.3436 L -4.507989999999994 18.88966 L -4.507989999999994 18.88966 C -2.3647199999999944 19.80821 0.803450000000006 19.82967 2.9967300000000057 18.94051 L 4.196800000000006 18.454 L 4.196800000000006 18.454 C 5.308120000000006 18.00347 6.7429100000000055 17.79703 8.169040000000006 17.88248 C 9.595170000000007 17.967930000000003 10.888990000000007 18.33785 11.750990000000005 18.90661 L 12.188980000000004 19.195610000000002 L 12.188980000000004 19.195610000000002 C 13.912900000000004 20.333090000000002 17.072650000000003 20.662540000000003 19.577250000000006 19.965960000000003 L 29.341490000000007 17.250310000000002 L 29.341490000000007 17.250310000000002 C 31.412750000000006 16.67425 32.694770000000005 15.589860000000002 32.694770000000005 14.413960000000003 L 32.694770000000005 -17.320189999999997 L 32.694770000000005 -17.320189999999997 C 32.694770000000005 -18.788469999999997 30.309050000000006 -19.983749999999997 27.342630000000007 -20.001689999999996 z" stroke-linecap="round" />
</g>
<g transform="matrix(0.3138438337 0 0 0.677115643 252.6830507096 296.6230154109)" id="L2gkmTXH1jM8GoUe7K4Mo"  >
<path style="stroke: rgb(0,0,0); stroke-width: 0; stroke-dasharray: none; stroke-linecap: butt; stroke-dashoffset: 0; stroke-linejoin: miter; stroke-miterlimit: 4; fill: rgb(166,124,0); fill-rule: nonzero; opacity: 1;" vector-effect="non-scaling-stroke"  transform=" translate(0, 0)" d="M -124.67323 -68.38362 C -116.61267000000001 -93.20778999999999 -70.59499 -111.56716 -16.433850000000007 -111.56716 L 18.008939999999996 -111.56716 L 18.008939999999996 -111.56716 C 72.25506999999999 -111.56716 118.28317 -93.11627 126.10443 -68.23584 L 166.87632 61.46477999999999 L 166.87632 61.46477999999999 C 170.83167 74.04724999999999 162.79178 86.80524 144.8464 96.42268999999999 C 126.90101999999999 106.04014 100.82253999999999 111.56715999999999 73.38932999999999 111.56715999999999 L -73.64599000000003 111.56715999999999 L -73.64599000000003 111.56715999999999 C -101.08190000000002 111.56715999999999 -127.15502000000004 106.02411999999998 -145.05339000000004 96.38621999999998 C -162.95176000000004 86.74832999999998 -170.89731000000003 73.97303999999998 -166.81414000000004 61.39808999999998 z" stroke-linecap="round" />
</g>
<g transform="matrix(1.0808018995 0.0188654673 -0.0188654673 1.0808018995 226.7627881649 128.731539638)" id="GZjzKi4FNhhkOYDJjyjrs"  >
<path style="stroke: rgb(134,86,125); stroke-width: 1; stroke-dasharray: none; stroke-linecap: butt; stroke-dashoffset: 0; stroke-linejoin: miter; stroke-miterlimit: 4; fill: rgb(255,255,255); fill-opacity: 0; fill-rule: nonzero; opacity: 1;" vector-effect="non-scaling-stroke"  transform=" translate(0, 0)" d="M 0 0" stroke-linecap="round" />
</g>
<g transform="matrix(1.0809665359 0 0 1.0809665359 233.2787750689 181.1427151228)" id="eV7Tf8HViVoI9gVNQ6UVV"  >
<g style="" vector-effect="non-scaling-stroke"   >
		<g transform="matrix(0.6122970072 0 0 0.6122970072 0 0)" id="f3XACqZK0k23HkS45XH54"  >
<path style="stroke: rgb(37,35,37); stroke-width: 0; stroke-dasharray: none; stroke-linecap: butt; stroke-dashoffset: 0; stroke-linejoin: miter; stroke-miterlimit: 4; fill: rgb(250,250,250); fill-opacity: 0.9; fill-rule: nonzero; opacity: 1;" vector-effect="non-scaling-stroke"  transform=" translate(0, -0.000005)" d="M -14.75 -6.41353 C -14.75 -11.757950000000001 -10.41749 -16.09046 -5.0730699999999995 -16.09046 L 5.073070000000001 -16.09046 L 5.073070000000001 -16.09046 C 10.41749 -16.09046 14.750000000000002 -11.757950000000001 14.750000000000002 -6.41353 L 14.750000000000002 6.413540000000001 L 14.750000000000002 6.413540000000001 C 14.750000000000002 11.75796 10.41749 16.090470000000003 5.073070000000001 16.090470000000003 L -5.0730699999999995 16.090470000000003 L -5.0730699999999995 16.090470000000003 C -10.41749 16.090470000000003 -14.75 11.757960000000004 -14.75 6.413540000000003 z" stroke-linecap="round" />
</g>
		<g transform="matrix(1 0 0 1 1.1965894597 0)" id="B6q_MdPCbVUObQYUPkEny"  >
<path style="stroke: rgb(134,86,125); stroke-width: 0; stroke-dasharray: none; stroke-linecap: butt; stroke-dashoffset: 0; stroke-linejoin: miter; stroke-miterlimit: 4; fill: rgb(0,0,0); fill-rule: nonzero; opacity: 1;" vector-effect="non-scaling-stroke"  transform=" translate(0, 0)" d="M 0 -5.5 C 3.036 -5.5 5.5 -3.036 5.5 0 C 5.5 3.036 3.036 5.5 0 5.5 C -3.036 5.5 -5.5 3.036 -5.5 0 C -5.5 -3.036 -3.036 -5.5 0 -5.5 z" stroke-linecap="round" />
</g>
		<g transform="matrix(1 0 0 1 1.6632 0)" id="1zGGICHfG5v8UpWPiJPhE"  >
<path style="stroke: rgb(37,35,37); stroke-width: 0; stroke-dasharray: none; stroke-linecap: butt; stroke-dashoffset: 0; stroke-linejoin: miter; stroke-miterlimit: 4; fill: rgb(232,232,232); fill-rule: nonzero; opacity: 1;" vector-effect="non-scaling-stroke"  transform=" translate(-1.6632, -1.6632)" d="M 1.6632 0 C 2.58129 0 3.3264 0.74511 3.3264 1.6632 C 3.3264 2.58129 2.58129 3.3264 1.6632 3.3264 C 0.74511 3.3264 0 2.58129 0 1.6632 C 0 0.74511 0.74511 0 1.6632 0 z" stroke-linecap="round" />
</g>
</g>
</g>
<g transform="matrix(1.191563656 0.020798821 -0.020798821 1.191563656 252.9592143357 116.019845053)" id="-K7t3B9HkPlROVVmx29iw"  >
<path style="stroke: rgb(0,0,0); stroke-width: 0; stroke-dasharray: none; stroke-linecap: butt; stroke-dashoffset: 0; stroke-linejoin: miter; stroke-miterlimit: 4; fill: rgb(223,138,42); fill-rule: nonzero; opacity: 1;" vector-effect="non-scaling-stroke"  transform=" translate(0, 0)" d="M 2.93497 26.36816 C 1.0020399999999998 25.458099999999998 -1.2355100000000006 25.45485 -3.1710700000000003 26.359289999999998 L -25.36377 36.72942 L -25.36377 36.72942 C -26.29994 37.166869999999996 -27.41181 36.94452 -28.10775 36.18069 C -28.80369 35.41686 -28.921879999999998 34.28915 -28.39943 33.39763 L -12.905069999999998 6.957709999999999 L -12.905069999999998 6.957709999999999 C -11.665189999999999 4.8419599999999985 -11.644759999999998 2.2262999999999984 -12.85142 0.09142999999999901 L -13.61749 -1.263920000000001 L -13.61749 -1.263920000000001 C -15.01821 -3.7421200000000012 -14.58593 -6.851370000000001 -12.56229 -8.853470000000002 L 15.322769999999998 -36.44188 L 15.322769999999998 -36.44188 C 15.94953 -37.06198 16.918039999999998 -37.17559 17.67129 -36.717369999999995 C 18.42454 -36.259159999999994 18.76898 -35.346869999999996 18.50651 -34.50516999999999 L 10.325759999999999 -8.270359999999993 L 10.325759999999999 -8.270359999999993 C 9.763469999999998 -6.4671399999999934 9.91438 -4.516929999999993 10.74739 -2.8216799999999926 L 28.45414 33.21311000000001 L 28.45414 33.21311000000001 C 28.946099999999998 34.214290000000005 28.7518 35.41703000000001 27.96962 36.21238000000001 C 27.18744 37.00773000000001 25.98811 37.22208000000001 24.978859999999997 36.74690000000001 z" stroke-linecap="round" />
</g>
<g transform="matrix(-1.0809665359 0 0 1.0809665359 271.3965242095 181.1427151228)" id="vz_PYDVfOVYkIUoJSjGGS"  >
<g style="" vector-effect="non-scaling-stroke"   >
		<g transform="matrix(0.6122970072 0 0 0.6122970072 0 0)" id="YkTxOHBjo1B1tyKtUl8ot"  >
<path style="stroke: rgb(37,35,37); stroke-width: 0; stroke-dasharray: none; stroke-linecap: butt; stroke-dashoffset: 0; stroke-linejoin: miter; stroke-miterlimit: 4; fill: rgb(250,250,250); fill-opacity: 0.9; fill-rule: nonzero; opacity: 1;" vector-effect="non-scaling-stroke"  transform=" translate(0, -0.000005)" d="M -14.75 -6.41353 C -14.75 -11.757950000000001 -10.41749 -16.09046 -5.0730699999999995 -16.09046 L 5.073070000000001 -16.09046 L 5.073070000000001 -16.09046 C 10.41749 -16.09046 14.750000000000002 -11.757950000000001 14.750000000000002 -6.41353 L 14.750000000000002 6.413540000000001 L 14.750000000000002 6.413540000000001 C 14.750000000000002 11.75796 10.41749 16.090470000000003 5.073070000000001 16.090470000000003 L -5.0730699999999995 16.090470000000003 L -5.0730699999999995 16.090470000000003 C -10.41749 16.090470000000003 -14.75 11.757960000000004 -14.75 6.413540000000003 z" stroke-linecap="round" />
</g>
		<g transform="matrix(1 0 0 1 1.1965894597 0)" id="NbYIWO5vs2blsfVkuSQ7W"  >
<path style="stroke: rgb(134,86,125); stroke-width: 0; stroke-dasharray: none; stroke-linecap: butt; stroke-dashoffset: 0; stroke-linejoin: miter; stroke-miterlimit: 4; fill: rgb(0,0,0); fill-rule: nonzero; opacity: 1;" vector-effect="non-scaling-stroke"  transform=" translate(0, 0)" d="M 0 -5.5 C 3.036 -5.5 5.5 -3.036 5.5 0 C 5.5 3.036 3.036 5.5 0 5.5 C -3.036 5.5 -5.5 3.036 -5.5 0 C -5.5 -3.036 -3.036 -5.5 0 -5.5 z" stroke-linecap="round" />
</g>
		<g transform="matrix(1 0 0 1 1.6632 0)" id="-eR_X1hzorGTz4zqEfYrm"  >
<path style="stroke: rgb(37,35,37); stroke-width: 0; stroke-dasharray: none; stroke-linecap: butt; stroke-dashoffset: 0; stroke-linejoin: miter; stroke-miterlimit: 4; fill: rgb(232,232,232); fill-rule: nonzero; opacity: 1;" vector-effect="non-scaling-stroke"  transform=" translate(-1.6632, -1.6632)" d="M 1.6632 0 C 2.58129 0 3.3264 0.74511 3.3264 1.6632 C 3.3264 2.58129 2.58129 3.3264 1.6632 3.3264 C 0.74511 3.3264 0 2.58129 0 1.6632 C 0 0.74511 0.74511 0 1.6632 0 z" stroke-linecap="round" />
</g>
</g>
</g>
<g transform="matrix(1.0808018995 -0.0188654673 -0.0070140836 -0.4018365827 276.6059566322 168.9769375555)" id="7MTjr4aHGavy6eikj88Tr"  >
<path style="stroke: rgb(37,35,37); stroke-width: 0; stroke-dasharray: none; stroke-linecap: butt; stroke-dashoffset: 0; stroke-linejoin: miter; stroke-miterlimit: 4; fill: rgb(211,193,91); fill-rule: nonzero; opacity: 1;" vector-effect="non-scaling-stroke"  transform=" translate(0, 0)" d="M -0.10395 -1.9118 C 4.37172 -1.9118 8.212060000000001 -15.05477 8.212060000000001 -10.579089999999999 C 8.212060000000001 -6.103419999999999 4.371730000000001 11.50851 -0.10394999999999932 11.50851 C -4.579619999999999 11.50851 -8.21206 7.87608 -8.21206 3.4003999999999994 C -8.21206 -1.0752700000000006 -4.57963 -1.911810000000001 -0.10394999999999932 -1.911810000000001 z" stroke-linecap="round" />
</g>
<g transform="matrix(-1.0808018995 -0.0188654673 0.0070140836 -0.4018365827 228.3350722247 168.9769375555)" id="GYqeuQxSj1dg6cN_7dI3Z"  >
<path style="stroke: rgb(37,35,37); stroke-width: 0; stroke-dasharray: none; stroke-linecap: butt; stroke-dashoffset: 0; stroke-linejoin: miter; stroke-miterlimit: 4; fill: rgb(193,190,190); fill-rule: nonzero; opacity: 1;" vector-effect="non-scaling-stroke"  transform=" translate(0, 0)" d="M -0.10395 -1.9118 C 4.37172 -1.9118 8.212060000000001 -15.05477 8.212060000000001 -10.579089999999999 C 8.212060000000001 -6.103419999999999 4.371730000000001 11.50851 -0.10394999999999932 11.50851 C -4.579619999999999 11.50851 -8.21206 7.87608 -8.21206 3.4003999999999994 C -8.21206 -1.0752700000000006 -4.57963 -1.911810000000001 -0.10394999999999932 -1.911810000000001 z" stroke-linecap="round" />
</g>
<g transform="matrix(1.2545098312 0 0 1.2545098312 252.9592143357 195.9035021871)" id="9jAAgbkL4La2Xvdy_d2_H"  >
<path style="stroke: rgb(37,35,37); stroke-width: 0; stroke-dasharray: none; stroke-linecap: butt; stroke-dashoffset: 0; stroke-linejoin: miter; stroke-miterlimit: 4; fill: rgb(237,158,87); fill-rule: nonzero; opacity: 1;" vector-effect="non-scaling-stroke"  transform=" translate(0, 0)" d="M 0 -5.36159 C 3.99202 -5.36159 2.49376 -3.86733 2.49376 0.12469000000000019 C 2.49376 4.11671 3.99201 5.3616 0 5.3616 C -3.99202 5.3616 -2.49376 4.11671 -2.49376 0.12469000000000019 C -2.49376 -3.86733 -3.99201 -5.36159 0 -5.36159 z" stroke-linecap="round" />
</g>
<g transform="matrix(-2.1566434925 0 0 -0.5512219687 243.041393667 210.8596741726)" id="yR6fkR4JUGPU5Hk73JG8u"  >
<path style="stroke: rgb(37,35,37); stroke-width: 0; stroke-dasharray: none; stroke-linecap: butt; stroke-dashoffset: 0; stroke-linejoin: miter; stroke-miterlimit: 4; fill: rgb(211,193,91); fill-rule: nonzero; opacity: 1;" vector-effect="non-scaling-stroke"  transform=" translate(0, 0)" d="M -0.10395 -1.9118 C 4.37172 -1.9118 8.212060000000001 -15.05477 8.212060000000001 -10.579089999999999 C 8.212060000000001 -6.103419999999999 4.371730000000001 11.50851 -0.10394999999999932 11.50851 C -4.579619999999999 11.50851 -8.21206 7.87608 -8.21206 3.4003999999999994 C -8.21206 -1.0752700000000006 -4.57963 -1.911810000000001 -0.10394999999999932 -1.911810000000001 z" stroke-linecap="round" />
</g>
<g transform="matrix(2.1990410379 0 0 -0.5512219687 263.4551061861 210.8596741722)" id="xJA5C0_sn3TZveqKntqdk"  >
<path style="stroke: rgb(37,35,37); stroke-width: 0; stroke-dasharray: none; stroke-linecap: butt; stroke-dashoffset: 0; stroke-linejoin: miter; stroke-miterlimit: 4; fill: rgb(211,193,91); fill-rule: nonzero; opacity: 1;" vector-effect="non-scaling-stroke"  transform=" translate(0, 0)" d="M -0.10395 -1.9118 C 4.37172 -1.9118 8.212060000000001 -15.05477 8.212060000000001 -10.579089999999999 C 8.212060000000001 -6.103419999999999 4.371730000000001 11.50851 -0.10394999999999932 11.50851 C -4.579619999999999 11.50851 -8.21206 7.87608 -8.21206 3.4003999999999994 C -8.21206 -1.0752700000000006 -4.57963 -1.911810000000001 -0.10394999999999932 -1.911810000000001 z" stroke-linecap="round" />
</g>
<g transform="matrix(-1.0809665359 0 0 -0.4018977937 227.3126218483 168.2455504727)" id="FB7nx7IAKvOBw-6ZgFRXA"  >
<path style="stroke: rgb(37,35,37); stroke-width: 0; stroke-dasharray: none; stroke-linecap: butt; stroke-dashoffset: 0; stroke-linejoin: miter; stroke-miterlimit: 4; fill: rgb(211,193,91); fill-rule: nonzero; opacity: 1;" vector-effect="non-scaling-stroke"  transform=" translate(0, 0)" d="M -0.10395 -1.9118 C 4.37172 -1.9118 8.212060000000001 -15.05477 8.212060000000001 -10.579089999999999 C 8.212060000000001 -6.103419999999999 4.371730000000001 11.50851 -0.10394999999999932 11.50851 C -4.579619999999999 11.50851 -8.21206 7.87608 -8.21206 3.4003999999999994 C -8.21206 -1.0752700000000006 -4.57963 -1.911810000000001 -0.10394999999999932 -1.911810000000001 z" stroke-linecap="round" />
</g>
<g transform="matrix(1.0809665359 0 0 1.0809665359 234.9811046821 217.2034164496)" id="Hyy3lY1iuvS-ZhFfxV9wt"  >
<path style="stroke: rgb(37,35,37); stroke-width: 1; stroke-dasharray: none; stroke-linecap: butt; stroke-dashoffset: 0; stroke-linejoin: miter; stroke-miterlimit: 4; fill: rgb(255,255,255); fill-opacity: 0; fill-rule: nonzero; opacity: 1;" vector-effect="non-scaling-stroke"  transform=" translate(0, 0)" d="M 0 0" stroke-linecap="round" />
</g>
<g transform="matrix(1.1447350587 0 0 0.677115643 252.9592143357 233.6836180064)" id="TkCnmnIxbDI-j0php8qoR"  >
<path style="stroke: rgb(0,0,0); stroke-width: 0; stroke-dasharray: none; stroke-linecap: butt; stroke-dashoffset: 0; stroke-linejoin: miter; stroke-miterlimit: 4; fill: rgb(211,193,91); fill-rule: nonzero; opacity: 1;" vector-effect="non-scaling-stroke"  transform=" translate(-0.000005, -0.000005)" d="M -20.22727 -20.22727 L 20.227279999999997 -20.22727 L 20.227279999999997 20.227279999999997 L -20.22727 20.227279999999997 z" stroke-linecap="round" />
</g>
<g transform="matrix(-0.0964070039 2.7607353806 -2.0203805667 -0.0705532441 222.3516481617 252.5531434027)" id="c6tIioL5pTBjnXcURtP2y"  >
<path style="stroke: rgb(37,35,37); stroke-width: 0; stroke-dasharray: none; stroke-linecap: butt; stroke-dashoffset: 0; stroke-linejoin: miter; stroke-miterlimit: 4; fill: rgb(211,193,91); fill-rule: nonzero; opacity: 1;" vector-effect="non-scaling-stroke"  transform=" translate(0, -0.0000045703)" d="M -3.82802 -5.80321 C 0.6476500000000001 -5.80321 14.907639999999999 -10.03958 14.907639999999999 -5.56391 C 14.907639999999999 -1.0882399999999999 0.6476499999999987 7.617100000000001 -3.8280200000000004 7.617100000000001 C -8.30369 7.617100000000001 -14.90764 4.4678 -14.90764 -0.007879999999999221 C -14.90764 -4.483549999999999 -8.30369 -5.80322 -3.8280200000000004 -5.80322 z" stroke-linecap="round" />
</g>
<g transform="matrix(-0.0817522298 2.3410775583 -1.7009116634 -0.0593971441 231.1761102294 257.8610135105)" id="9VxfNZ4YDHRbCKfRVgl0x"  >
<path style="stroke: rgb(37,35,37); stroke-width: 0; stroke-dasharray: none; stroke-linecap: butt; stroke-dashoffset: 0; stroke-linejoin: miter; stroke-miterlimit: 4; fill: rgb(211,193,91); fill-rule: nonzero; opacity: 1;" vector-effect="non-scaling-stroke"  transform=" translate(0, -7.724e-7)" d="M -3.65061 -5.89721 C 0.8250600000000001 -5.89721 14.730229999999999 -9.8704 14.730229999999999 -5.39472 C 14.730229999999999 -0.9190500000000004 0.8250699999999984 7.5231 -3.6506100000000004 7.5231 C -8.126280000000001 7.5231 -14.73023 4.3738 -14.73023 -0.10187999999999953 C -14.73023 -4.57755 -8.126280000000001 -5.89722 -3.6506100000000004 -5.89722 z" stroke-linecap="round" />
</g>
<g transform="matrix(0.0799336243 -2.2889995105 -1.6630743185 -0.0580758349 234.935458619 257.9288663132)" id="l9MZn3ngfrCmRRWQ5fLxT"  >
<path style="stroke: rgb(37,35,37); stroke-width: 0; stroke-dasharray: none; stroke-linecap: butt; stroke-dashoffset: 0; stroke-linejoin: miter; stroke-miterlimit: 4; fill: rgb(211,193,91); fill-rule: nonzero; opacity: 1;" vector-effect="non-scaling-stroke"  transform=" translate(0.000005, -0.0000066096)" d="M -13.47667 -2.5201 C -11.17103 -3.9785899999999996 -7.17107 -4.13851 -4.1670300000000005 -4.13851 C 0.3086399999999996 -4.13851 14.85377 -9.136849999999999 14.85377 -4.66117 C 14.85377 -0.18550000000000022 0.03813000000000066 6.52336 -4.4375399999999985 6.52336 C -8.91321 6.52336 -14.853779999999999 5.809760000000001 -14.853779999999999 1.3340800000000002 C -14.853779999999999 -0.13754999999999984 -14.606169999999999 -1.8055999999999996 -13.476669999999999 -2.5200899999999997 z" stroke-linecap="round" />
</g>
<g transform="matrix(0.0817522298 -2.3410775583 -1.7009116634 -0.0593971441 236.6890399743 258.8140696325)" id="q45Smbjq6E8jcLD7b26-B"  >
<path style="stroke: rgb(37,35,37); stroke-width: 0; stroke-dasharray: none; stroke-linecap: butt; stroke-dashoffset: 0; stroke-linejoin: miter; stroke-miterlimit: 4; fill: rgb(211,193,91); fill-rule: nonzero; opacity: 1;" vector-effect="non-scaling-stroke"  transform=" translate(0, -0.0000015027)" d="M -4.32302 -11.30436 C 0.1526500000000004 -11.30436 14.060659999999999 -13.94105 14.060659999999999 -9.46537 C 14.060659999999999 -4.9897 1.304829999999999 12.07582 -3.170840000000002 12.07582 C -7.646510000000002 12.07582 -14.060660000000002 -1.4018700000000006 -14.060660000000002 -5.87754 C -14.060660000000002 -10.35321 -8.798690000000002 -11.30435 -4.323020000000001 -11.30435 z" stroke-linecap="round" />
</g>
<g transform="matrix(0.079633232 -2.2803974015 -1.7009116634 -0.0593971441 256.609157072 259.4982300912)" id="rl0_SoHu_tTkMr6WfVi8O"  >
<path style="stroke: rgb(37,35,37); stroke-width: 0; stroke-dasharray: none; stroke-linecap: butt; stroke-dashoffset: 0; stroke-linejoin: miter; stroke-miterlimit: 4; fill: rgb(211,193,91); fill-rule: nonzero; opacity: 1;" vector-effect="non-scaling-stroke"  transform=" translate(0, 1.049e-7)" d="M -3.40538 -6.60507 C 1.07029 -6.60507 14.485 -8.01359 14.485 -3.5379200000000006 C 14.485 0.9377499999999994 1.0702999999999996 6.81524 -3.405380000000001 6.81524 C -7.881050000000001 6.81524 -14.485000000000001 3.66594 -14.485000000000001 -0.8097399999999997 C -14.485000000000001 -5.28541 -7.881050000000001 -6.60508 -3.405380000000001 -6.60508 z" stroke-linecap="round" />
</g>
<g transform="matrix(0.0817522298 -2.3410775583 -1.7009116634 -0.0593971441 267.6375153922 258.792608911)" id="NMwCOW_mFpGa9DXh0UXbZ"  >
<path style="stroke: rgb(37,35,37); stroke-width: 0; stroke-dasharray: none; stroke-linecap: butt; stroke-dashoffset: 0; stroke-linejoin: miter; stroke-miterlimit: 4; fill: rgb(211,193,91); fill-rule: nonzero; opacity: 1;" vector-effect="non-scaling-stroke"  transform=" translate(0.000005, -0.0000045703)" d="M -4.1512 -5.80321 C 0.3244699999999998 -5.80321 14.58446 -10.03958 14.58446 -5.56391 C 14.58446 -1.0882399999999999 0.3244699999999998 7.617100000000001 -4.151199999999999 7.617100000000001 C -8.62687 7.617100000000001 -14.58447 4.4988600000000005 -14.58447 0.023190000000000488 C -14.58447 -4.4524799999999995 -8.62688 -5.803209999999999 -4.151199999999999 -5.803209999999999 z" stroke-linecap="round" />
</g>
<g transform="matrix(0.0967595992 2.7708323899 2.0203805667 -0.0705532441 285.6004810371 253.0499840152)" id="MDqf6D_hwOiN6MKI2xt9V"  >
<path style="stroke: rgb(37,35,37); stroke-width: 0; stroke-dasharray: none; stroke-linecap: butt; stroke-dashoffset: 0; stroke-linejoin: miter; stroke-miterlimit: 4; fill: rgb(211,193,91); fill-rule: nonzero; opacity: 1;" vector-effect="non-scaling-stroke"  transform=" translate(0, 0.0000015683)" d="M -3.6179 -6.29729 C 0.8577699999999999 -6.29729 14.697519999999999 -9.02956 14.697519999999999 -4.55389 C 14.697519999999999 -0.07821999999999996 0.8577699999999986 7.1230199999999995 -3.6179000000000006 7.1230199999999995 C -8.09357 7.1230199999999995 -14.69752 3.9737199999999993 -14.69752 -0.5019600000000004 C -14.69752 -4.97763 -8.09357 -6.297300000000001 -3.6179000000000006 -6.297300000000001 z" stroke-linecap="round" />
</g>
<g transform="matrix(1.1447350587 0 0 0.677115643 254.6671496268 280.1589103712)" id="CaA7YDYgj5OUVLqY6AgPW"  >
<path style="stroke: rgb(0,0,0); stroke-width: 0; stroke-dasharray: none; stroke-linecap: butt; stroke-dashoffset: 0; stroke-linejoin: miter; stroke-miterlimit: 4; fill: rgb(211,193,91); fill-rule: nonzero; opacity: 1;" vector-effect="non-scaling-stroke"  transform=" translate(-0.000005, -0.000005)" d="M -20.22727 -20.22727 L 20.227279999999997 -20.22727 L 20.227279999999997 20.227279999999997 L -20.22727 20.227279999999997 z" stroke-linecap="round" />
</g>
<g transform="matrix(0.5205626908 0.1394843526 -0.1394843526 0.5205626908 277.5819380814 313.7705389096)" id="3YLU0GsOGpjAkUn7wDzoI"  >
<path style="stroke: rgb(0,0,0); stroke-width: 0; stroke-dasharray: none; stroke-linecap: butt; stroke-dashoffset: 0; stroke-linejoin: miter; stroke-miterlimit: 4; fill: rgb(255,220,115); fill-rule: nonzero; opacity: 1;" vector-effect="non-scaling-stroke"  transform=" translate(-35.70264, -33.955225)" d="M 35.70263 0 L 46.29402 22.96199 L 71.40527 25.93951 L 52.83963 43.10844 L 57.768119999999996 67.91045 L 35.702639999999995 55.55902 L 13.637159999999994 67.91045 L 18.565649999999994 43.10844 L 0.000009999999996068709 25.939510000000002 L 25.111259999999994 22.96199 z" stroke-linecap="round" />
</g>
<g transform="matrix(0.2821297913 0.0755964498 -0.0755964498 0.2821297913 249.9310739178 353.2969206167)" id="Ld4FqePlkJONXPcoezkad"  >
<path style="stroke: rgb(0,0,0); stroke-width: 0; stroke-dasharray: none; stroke-linecap: butt; stroke-dashoffset: 0; stroke-linejoin: miter; stroke-miterlimit: 4; fill: rgb(255,220,115); fill-rule: nonzero; opacity: 1;" vector-effect="non-scaling-stroke"  transform=" translate(-35.70264, -33.955225)" d="M 35.70263 0 L 46.29402 22.96199 L 71.40527 25.93951 L 52.83963 43.10844 L 57.768119999999996 67.91045 L 35.702639999999995 55.55902 L 13.637159999999994 67.91045 L 18.565649999999994 43.10844 L 0.000009999999996068709 25.939510000000002 L 25.111259999999994 22.96199 z" stroke-linecap="round" />
</g>
<g transform="matrix(0.2821297913 0.0755964498 -0.0755964498 0.2821297913 280.2892949649 348.7050933108)" id="9mxD2Cu1pTm0FRAgumKGn"  >
<path style="stroke: rgb(0,0,0); stroke-width: 0; stroke-dasharray: none; stroke-linecap: butt; stroke-dashoffset: 0; stroke-linejoin: miter; stroke-miterlimit: 4; fill: rgb(255,220,115); fill-rule: nonzero; opacity: 1;" vector-effect="non-scaling-stroke"  transform=" translate(-35.70264, -33.955225)" d="M 35.70263 0 L 46.29402 22.96199 L 71.40527 25.93951 L 52.83963 43.10844 L 57.768119999999996 67.91045 L 35.702639999999995 55.55902 L 13.637159999999994 67.91045 L 18.565649999999994 43.10844 L 0.000009999999996068709 25.939510000000002 L 25.111259999999994 22.96199 z" stroke-linecap="round" />
</g>
<g transform="matrix(0.4833973377 0 0 0.4833973377 228.6471636441 319.7342377238)" id="5yBYO3hffPlIldEh-QGsp"  >
<path style="stroke: rgb(0,0,0); stroke-width: 0; stroke-dasharray: none; stroke-linecap: butt; stroke-dashoffset: 0; stroke-linejoin: miter; stroke-miterlimit: 4; fill: rgb(255,207,64); fill-rule: nonzero; opacity: 1;" vector-effect="non-scaling-stroke"  transform=" translate(0, 0)" d="M 0 -44.02985 C 24.30447 -44.02985 44.02985 -24.30448 44.02985 0 C 44.02985 24.30447 24.30448 44.02985 0 44.02985 C -24.30447 44.02985 -44.02985 24.30448 -44.02985 0 C -44.02985 -24.30447 -24.30448 -44.02985 0 -44.02985 z" stroke-linecap="round" />
</g>
<g transform="matrix(1 0 0 1 222.5625750053 384.7088123417)" id="J7iHV23J9Rlx250UMiJZ7"  >
<g style=""   >
		<g transform="matrix(0.6254335591 0 0 0.3127167852 -2.7683430965 -4.71e-7)" id="UU5DJLINu6p5GI6ME4Roh"  >
<path style="stroke: rgb(255,255,255); stroke-width: 0; stroke-dasharray: none; stroke-linecap: butt; stroke-dashoffset: 0; stroke-linejoin: miter; stroke-miterlimit: 4; fill: rgb(166,124,0); fill-rule: nonzero; opacity: 1;" vector-effect="non-scaling-stroke"  transform=" translate(0, 0)" d="M -19.87578 -7.32496 C -19.87578 -10.65364 -19.21462 -13.84599 -18.03776 -16.19973 C -16.860889999999998 -18.553459999999998 -15.264719999999999 -19.87578 -13.600379999999998 -19.87578 L 13.600360000000002 -19.87578 L 13.600360000000002 -19.87578 C 15.264700000000001 -19.87578 16.86088 -18.553469999999997 18.037740000000003 -16.19973 C 19.214610000000004 -13.845999999999998 19.875760000000003 -10.653649999999999 19.875760000000003 -7.324959999999999 L 19.875760000000003 7.32497 L 19.875760000000003 7.32497 C 19.875760000000003 14.25659 17.066160000000004 19.87578 13.600350000000002 19.87578 L -19.875799999999995 19.87578 z" stroke-linecap="round" />
</g>
		<g transform="matrix(0.6254335591 0 0 0.3127167852 2.7683430967 4.705e-7)" id="AeiXMTKLeLorx7ne8t43D"  >
<path style="stroke: rgb(255,255,255); stroke-width: 0; stroke-dasharray: none; stroke-linecap: butt; stroke-dashoffset: 0; stroke-linejoin: miter; stroke-miterlimit: 4; fill: rgb(166,124,0); fill-rule: nonzero; opacity: 1;" vector-effect="non-scaling-stroke"  transform=" translate(0, 0)" d="M -19.87578 -7.32496 C -19.87578 -14.25658 -17.06618 -19.87577 -13.600369999999998 -19.87577 L 13.600370000000002 -19.87577 L 13.600370000000002 -19.87577 C 17.066180000000003 -19.87577 19.875780000000002 -14.25658 19.875780000000002 -7.324959999999999 L 19.875780000000002 7.32497 L 19.875780000000002 7.32497 C 19.875780000000002 14.25659 17.066180000000003 19.87578 13.600370000000002 19.87578 L -13.600369999999998 19.87578 L -13.600369999999998 19.87578 C -17.06618 19.87578 -19.87578 14.25659 -19.87578 7.324969999999999 z" stroke-linecap="round" />
</g>
</g>
</g>
<g transform="matrix(0.6254335591 0 0 0.3127167852 283.8275040349 384.7088128122)" id="Z8DpumjxxsVOoRJwaEOyS"  >
<path style="stroke: rgb(255,255,255); stroke-width: 0; stroke-dasharray: none; stroke-linecap: butt; stroke-dashoffset: 0; stroke-linejoin: miter; stroke-miterlimit: 4; fill: rgb(166,124,0); fill-rule: nonzero; opacity: 1;" vector-effect="non-scaling-stroke"  transform=" translate(0, 0)" d="M -19.87578 -7.32496 C -19.87578 -14.25658 -17.06618 -19.87577 -13.600369999999998 -19.87577 L 13.600370000000002 -19.87577 L 13.600370000000002 -19.87577 C 17.066180000000003 -19.87577 19.875780000000002 -14.25658 19.875780000000002 -7.324959999999999 L 19.875780000000002 7.32497 L 19.875780000000002 7.32497 C 19.875780000000002 14.25659 17.066180000000003 19.87578 13.600370000000002 19.87578 L -13.600369999999998 19.87578 L -13.600369999999998 19.87578 C -17.06618 19.87578 -19.87578 14.25659 -19.87578 7.324969999999999 z" stroke-linecap="round" />
</g>
<g transform="matrix(2.9457987639 0 0 0.7790865737 252.4872620636 154.2320315525)" id="NEYusEpB-KqammBhrJN6L"  >
<path style="stroke: rgb(0,0,0); stroke-width: 0; stroke-dasharray: none; stroke-linecap: butt; stroke-dashoffset: 0; stroke-linejoin: miter; stroke-miterlimit: 4; fill: rgb(223,138,42); fill-rule: nonzero; opacity: 1;" vector-effect="non-scaling-stroke"  transform=" translate(0, 0)" d="M -12.05037 -4.95683 C -12.05037 -8.87448 -11.210429999999999 -12.050370000000001 -10.17432 -12.050370000000001 L 10.1743 -12.050370000000001 L 10.1743 -12.050370000000001 C 11.210420000000001 -12.050370000000001 12.05035 -8.874490000000002 12.05035 -4.956830000000001 L 12.05035 4.95682 L 12.05035 4.95682 C 12.05035 8.874469999999999 11.21041 12.05036 10.1743 12.05036 L -10.17432 12.05036 L -10.17432 12.05036 C -11.21044 12.05036 -12.05037 8.87448 -12.05037 4.95682 z" stroke-linecap="round" />
</g>
<g transform="matrix(3.2701609865 0 0 1 248.9900546234 445.3459116111)" id="v2jEgkUktiJExs9p053t1"  >
<path style="stroke: rgb(3,31,29); stroke-width: 0; stroke-dasharray: none; stroke-linecap: butt; stroke-dashoffset: 0; stroke-linejoin: miter; stroke-miterlimit: 4; fill: rgb(184,162,45); fill-rule: nonzero; opacity: 1;"  transform=" translate(0, 0)" d="M -55.34592 -36.84567 C -55.34592 -47.063069999999996 -52.813069999999996 -55.34591 -49.68863 -55.34591 L 49.68863 -55.34591 L 49.68863 -55.34591 C 52.81306 -55.34591 55.34592000000001 -47.06307 55.34592000000001 -36.84567 L 55.34592000000001 36.84567 L 55.34592000000001 36.84567 C 55.34592000000001 47.063069999999996 52.81307000000001 55.34591 49.68863 55.34591 L -49.68863 55.34591 L -49.68863 55.34591 C -52.81306 55.34591 -55.34592000000001 47.06307 -55.34592000000001 36.84567 z" stroke-linecap="round" />
</g>
</svg>