<?xml version="1.0" encoding="UTF-8" standalone="no" ?>
<!DOCTYPE svg PUBLIC "-//W3C//DTD SVG 1.1//EN" "http://www.w3.org/Graphics/SVG/1.1/DTD/svg11.dtd">
<svg xmlns="http://www.w3.org/2000/svg" xmlns:xlink="http://www.w3.org/1999/xlink" version="1.1" width="500" height="500" viewBox="0 0 500 500" xml:space="preserve">
<desc>Created with Fabric.js 5.3.0</desc>
<defs>
</defs>
<g transform="matrix(1.5964282424 0 0 3.2255577436 250 189.1295083933)" id="n5SBDVYsQYSUkAzSJAfNU"  >
<path style="stroke: rgb(134,86,125); stroke-width: 0; stroke-dasharray: none; stroke-linecap: butt; stroke-dashoffset: 0; stroke-linejoin: miter; stroke-miterlimit: 4; fill: rgb(248,217,153); fill-rule: nonzero; opacity: 1;" vector-effect="non-scaling-stroke"  transform=" translate(0, 0)" d="M -26.86404 -20.32947 C -28.29252 -20.33811 -29.669349999999998 -20.06532 -30.69119 -19.57121 C -31.71303 -19.077090000000002 -32.29606 -18.40219 -32.31183 -17.69518 L -32.67973 -1.2001799999999996 C -32.67973 -1.2001799999999996 -32.81855 16.65849 -32.25234 16.72927 C -30.875579999999996 16.90136 -26.40394 18.66045 -23.664139999999996 19.70638 L -23.664139999999996 19.70638 C -21.463549999999998 20.54646 -18.372099999999996 20.50355 -16.270129999999995 19.60373 L -13.319049999999994 18.341649999999998 L -13.319049999999994 18.341649999999998 C -11.154359999999993 17.415879999999998 -7.944879999999993 17.41671 -5.782139999999994 18.3436 L -4.507989999999994 18.88966 L -4.507989999999994 18.88966 C -2.3647199999999944 19.80821 0.803450000000006 19.82967 2.9967300000000057 18.94051 L 4.196800000000006 18.454 L 4.196800000000006 18.454 C 5.308120000000006 18.00347 6.7429100000000055 17.79703 8.169040000000006 17.88248 C 9.595170000000007 17.967930000000003 10.888990000000007 18.33785 11.750990000000005 18.90661 L 12.188980000000004 19.195610000000002 L 12.188980000000004 19.195610000000002 C 13.912900000000004 20.333090000000002 17.072650000000003 20.662540000000003 19.577250000000006 19.965960000000003 L 29.341490000000007 17.250310000000002 L 29.341490000000007 17.250310000000002 C 31.412750000000006 16.67425 32.694770000000005 15.589860000000002 32.694770000000005 14.413960000000003 L 32.694770000000005 -17.320189999999997 L 32.694770000000005 -17.320189999999997 C 32.694770000000005 -18.788469999999997 30.309050000000006 -19.983749999999997 27.342630000000007 -20.001689999999996 z" stroke-linecap="round" />
</g>
<g transform="matrix(0.4635010828 0 0 1 250.4858170836 337.8773836764)" id="L2gkmTXH1jM8GoUe7K4Mo"  >
<path style="stroke: rgb(0,0,0); stroke-width: 0; stroke-dasharray: none; stroke-linecap: butt; stroke-dashoffset: 0; stroke-linejoin: miter; stroke-miterlimit: 4; fill: rgb(108,59,244); fill-rule: nonzero; opacity: 1;" vector-effect="non-scaling-stroke"  transform=" translate(0, 0)" d="M -124.67307 -68.38362 C -116.61251 -93.20778999999999 -70.59483 -111.56716 -16.43369 -111.56716 L 18.009100000000004 -111.56716 L 18.009100000000004 -111.56716 C 72.2559 -111.56743 118.28428000000001 -93.11582 126.10334 -68.23492999999999 L 166.87606 61.46481 L 166.87606 61.46481 C 170.8316 74.04729 162.79178 86.80533 144.84637 96.42278999999999 C 126.90096000000001 106.04024999999999 100.82237 111.56724999999999 73.38911 111.56715999999999 L -73.64584 111.56715999999999 L -73.64584 111.56715999999999 C -101.08175 111.56715999999999 -127.15487000000002 106.02411999999998 -145.05324000000002 96.38621999999998 C -162.95161000000002 86.74832999999998 -170.89716 73.97303999999998 -166.81399000000002 61.39808999999998 z" stroke-linecap="round" />
</g>
<g transform="matrix(1 0 0 1 439.4613999838 198.3165346502)" id="SokQRVdl8C7HNygGEmHGB"  >
<path style="stroke: rgb(0,0,0); stroke-width: 1; stroke-dasharray: none; stroke-linecap: butt; stroke-dashoffset: 0; stroke-linejoin: miter; stroke-miterlimit: 4; fill: rgb(255,255,255); fill-opacity: 0; fill-rule: nonzero; opacity: 1;" vector-effect="non-scaling-stroke"  transform=" translate(0, 0)" d="M 0 0" stroke-linecap="round" />
</g>
<g transform="matrix(1.5961850987 0.0278615145 -0.0278615145 1.5961850987 212.2054098725 89.9264206503)" id="GZjzKi4FNhhkOYDJjyjrs"  >
<path style="stroke: rgb(134,86,125); stroke-width: 1; stroke-dasharray: none; stroke-linecap: butt; stroke-dashoffset: 0; stroke-linejoin: miter; stroke-miterlimit: 4; fill: rgb(255,255,255); fill-opacity: 0; fill-rule: nonzero; opacity: 1;" vector-effect="non-scaling-stroke"  transform=" translate(0, 0)" d="M 0 0" stroke-linecap="round" />
</g>
<g transform="matrix(1.5964282424 0 0 1.5964282424 221.8285620932 167.3300015942)" id="eV7Tf8HViVoI9gVNQ6UVV"  >
<g style="" vector-effect="non-scaling-stroke"   >
		<g transform="matrix(0.6122970072 0 0 0.6122970072 0 0)" id="f3XACqZK0k23HkS45XH54"  >
<path style="stroke: rgb(37,35,37); stroke-width: 0; stroke-dasharray: none; stroke-linecap: butt; stroke-dashoffset: 0; stroke-linejoin: miter; stroke-miterlimit: 4; fill: rgb(250,250,250); fill-opacity: 0.9; fill-rule: nonzero; opacity: 1;" vector-effect="non-scaling-stroke"  transform=" translate(0, 0)" d="M -14.75 -6.41353 C -14.75 -11.757950000000001 -10.41749 -16.09046 -5.0730699999999995 -16.09046 L 5.073070000000001 -16.09046 L 5.073070000000001 -16.09046 C 10.41749 -16.09046 14.750000000000002 -11.757950000000001 14.750000000000002 -6.41353 L 14.750000000000002 6.413540000000001 L 14.750000000000002 6.413540000000001 C 14.750000000000002 11.75796 10.41749 16.090470000000003 5.073070000000001 16.090470000000003 L -5.0730699999999995 16.090470000000003 L -5.0730699999999995 16.090470000000003 C -10.41749 16.090470000000003 -14.75 11.757960000000004 -14.75 6.413540000000003 z" stroke-linecap="round" />
</g>
		<g transform="matrix(1 0 0 1 1.1965894597 0)" id="B6q_MdPCbVUObQYUPkEny"  >
<path style="stroke: rgb(134,86,125); stroke-width: 0; stroke-dasharray: none; stroke-linecap: butt; stroke-dashoffset: 0; stroke-linejoin: miter; stroke-miterlimit: 4; fill: rgb(0,0,0); fill-rule: nonzero; opacity: 1;" vector-effect="non-scaling-stroke"  transform=" translate(0, 0)" d="M 0 -5.5 C 3.036 -5.5 5.5 -3.036 5.5 0 C 5.5 3.036 3.036 5.5 0 5.5 C -3.036 5.5 -5.5 3.036 -5.5 0 C -5.5 -3.036 -3.036 -5.5 0 -5.5 z" stroke-linecap="round" />
</g>
		<g transform="matrix(1 0 0 1 1.6632 0)" id="1zGGICHfG5v8UpWPiJPhE"  >
<path style="stroke: rgb(37,35,37); stroke-width: 0; stroke-dasharray: none; stroke-linecap: butt; stroke-dashoffset: 0; stroke-linejoin: miter; stroke-miterlimit: 4; fill: rgb(232,232,232); fill-rule: nonzero; opacity: 1;" vector-effect="non-scaling-stroke"  transform=" translate(-1.6632, -1.6632)" d="M 1.6632 0 C 2.58129 0 3.3264 0.74511 3.3264 1.6632 C 3.3264 2.58129 2.58129 3.3264 1.6632 3.3264 C 0.74511 3.3264 0 2.58129 0 1.6632 C 0 0.74511 0.74511 0 1.6632 0 z" stroke-linecap="round" />
</g>
</g>
</g>
<g transform="matrix(1.7597638871 0.0307167929 -0.0307167929 1.7597638871 250.8936700537 71.1531214132)" id="-K7t3B9HkPlROVVmx29iw"  >
<path style="stroke: rgb(0,0,0); stroke-width: 0; stroke-dasharray: none; stroke-linecap: butt; stroke-dashoffset: 0; stroke-linejoin: miter; stroke-miterlimit: 4; fill: rgb(49,50,181); fill-rule: nonzero; opacity: 1;" vector-effect="non-scaling-stroke"  transform=" translate(0, 0)" d="M 2.93497 26.36816 C 1.0020399999999998 25.458099999999998 -1.2355100000000006 25.45485 -3.1710700000000003 26.359289999999998 L -25.36377 36.72942 L -25.36377 36.72942 C -26.29994 37.166869999999996 -27.41181 36.94452 -28.10775 36.18069 C -28.80369 35.41686 -28.921879999999998 34.28915 -28.39943 33.39763 L -12.905069999999998 6.957709999999999 L -12.905069999999998 6.957709999999999 C -11.665189999999999 4.8419599999999985 -11.644759999999998 2.2262999999999984 -12.85142 0.09142999999999901 L -13.61749 -1.263920000000001 L -13.61749 -1.263920000000001 C -15.01821 -3.7421200000000012 -14.58593 -6.851370000000001 -12.56229 -8.853470000000002 L 15.322769999999998 -36.44188 L 15.322769999999998 -36.44188 C 15.94953 -37.06198 16.918039999999998 -37.17559 17.67129 -36.717369999999995 C 18.42454 -36.259159999999994 18.76898 -35.346869999999996 18.50651 -34.50516999999999 L 10.325759999999999 -8.270359999999993 L 10.325759999999999 -8.270359999999993 C 9.763469999999998 -6.4671399999999934 9.91438 -4.516929999999993 10.74739 -2.8216799999999926 L 28.45414 33.21311000000001 L 28.45414 33.21311000000001 C 28.946099999999998 34.214290000000005 28.7518 35.41703000000001 27.96962 36.21238000000001 C 27.18744 37.00773000000001 25.98811 37.22208000000001 24.978859999999997 36.74690000000001 z" stroke-linecap="round" />
</g>
<g transform="matrix(-1.5964282424 0 0 1.5964282424 278.1228591342 167.3300015942)" id="vz_PYDVfOVYkIUoJSjGGS"  >
<g style="" vector-effect="non-scaling-stroke"   >
		<g transform="matrix(0.6122970072 0 0 0.6122970072 0 0)" id="YkTxOHBjo1B1tyKtUl8ot"  >
<path style="stroke: rgb(37,35,37); stroke-width: 0; stroke-dasharray: none; stroke-linecap: butt; stroke-dashoffset: 0; stroke-linejoin: miter; stroke-miterlimit: 4; fill: rgb(250,250,250); fill-opacity: 0.9; fill-rule: nonzero; opacity: 1;" vector-effect="non-scaling-stroke"  transform=" translate(0, -0.000005)" d="M -14.75 -6.41353 C -14.75 -11.757950000000001 -10.41749 -16.09046 -5.0730699999999995 -16.09046 L 5.073070000000001 -16.09046 L 5.073070000000001 -16.09046 C 10.41749 -16.09046 14.750000000000002 -11.757950000000001 14.750000000000002 -6.41353 L 14.750000000000002 6.413540000000001 L 14.750000000000002 6.413540000000001 C 14.750000000000002 11.75796 10.41749 16.090470000000003 5.073070000000001 16.090470000000003 L -5.0730699999999995 16.090470000000003 L -5.0730699999999995 16.090470000000003 C -10.41749 16.090470000000003 -14.75 11.757960000000004 -14.75 6.413540000000003 z" stroke-linecap="round" />
</g>
		<g transform="matrix(1 0 0 1 1.1965894597 0)" id="NbYIWO5vs2blsfVkuSQ7W"  >
<path style="stroke: rgb(134,86,125); stroke-width: 0; stroke-dasharray: none; stroke-linecap: butt; stroke-dashoffset: 0; stroke-linejoin: miter; stroke-miterlimit: 4; fill: rgb(0,0,0); fill-rule: nonzero; opacity: 1;" vector-effect="non-scaling-stroke"  transform=" translate(0, 0)" d="M 0 -5.5 C 3.036 -5.5 5.5 -3.036 5.5 0 C 5.5 3.036 3.036 5.5 0 5.5 C -3.036 5.5 -5.5 3.036 -5.5 0 C -5.5 -3.036 -3.036 -5.5 0 -5.5 z" stroke-linecap="round" />
</g>
		<g transform="matrix(1 0 0 1 1.6632 0)" id="-eR_X1hzorGTz4zqEfYrm"  >
<path style="stroke: rgb(37,35,37); stroke-width: 0; stroke-dasharray: none; stroke-linecap: butt; stroke-dashoffset: 0; stroke-linejoin: miter; stroke-miterlimit: 4; fill: rgb(232,232,232); fill-rule: nonzero; opacity: 1;" vector-effect="non-scaling-stroke"  transform=" translate(-1.6632, -1.6632)" d="M 1.6632 0 C 2.58129 0 3.3264 0.74511 3.3264 1.6632 C 3.3264 2.58129 2.58129 3.3264 1.6632 3.3264 C 0.74511 3.3264 0 2.58129 0 1.6632 C 0 0.74511 0.74511 0 1.6632 0 z" stroke-linecap="round" />
</g>
</g>
</g>
<g transform="matrix(1.5961850986 -0.0278615145 -0.0103587677 -0.5934534032 285.816422968 149.3629413257)" id="7MTjr4aHGavy6eikj88Tr"  >
<path style="stroke: rgb(37,35,37); stroke-width: 0; stroke-dasharray: none; stroke-linecap: butt; stroke-dashoffset: 0; stroke-linejoin: miter; stroke-miterlimit: 4; fill: rgb(193,190,190); fill-rule: nonzero; opacity: 1;" vector-effect="non-scaling-stroke"  transform=" translate(0, -0.0000026086)" d="M -0.10395 -1.9118 C 4.37172 -1.9118 8.212060000000001 -15.05477 8.212060000000001 -10.579089999999999 C 8.212060000000001 -6.103419999999999 4.371730000000001 11.50851 -0.10394999999999932 11.50851 C -4.579619999999999 11.50851 -8.21206 7.87608 -8.21206 3.4003999999999994 C -8.21206 -1.0752700000000006 -4.57963 -1.911810000000001 -0.10394999999999932 -1.911810000000001 z" stroke-linecap="round" />
</g>
<g transform="matrix(-1.5961850986 -0.0278615145 0.0103587677 -0.5934534032 214.527441679 149.3629413257)" id="GYqeuQxSj1dg6cN_7dI3Z"  >
<path style="stroke: rgb(37,35,37); stroke-width: 0; stroke-dasharray: none; stroke-linecap: butt; stroke-dashoffset: 0; stroke-linejoin: miter; stroke-miterlimit: 4; fill: rgb(193,190,190); fill-rule: nonzero; opacity: 1;" vector-effect="non-scaling-stroke"  transform=" translate(0, -0.0000026086)" d="M -0.10395 -1.9118 C 4.37172 -1.9118 8.212060000000001 -15.05477 8.212060000000001 -10.579089999999999 C 8.212060000000001 -6.103419999999999 4.371730000000001 11.50851 -0.10394999999999932 11.50851 C -4.579619999999999 11.50851 -8.21206 7.87608 -8.21206 3.4003999999999994 C -8.21206 -1.0752700000000006 -4.57963 -1.911810000000001 -0.10394999999999932 -1.911810000000001 z" stroke-linecap="round" />
</g>
<g transform="matrix(1.8527261098 0 0 1.8527261098 250.8936700537 189.1295083933)" id="9jAAgbkL4La2Xvdy_d2_H"  >
<path style="stroke: rgb(37,35,37); stroke-width: 0; stroke-dasharray: none; stroke-linecap: butt; stroke-dashoffset: 0; stroke-linejoin: miter; stroke-miterlimit: 4; fill: rgb(237,158,87); fill-rule: nonzero; opacity: 1;" vector-effect="non-scaling-stroke"  transform=" translate(0, 0)" d="M 0 -5.36159 C 3.99202 -5.36159 2.49376 -3.86733 2.49376 0.12469000000000019 C 2.49376 4.11671 3.99201 5.3616 0 5.3616 C -3.99202 5.3616 -2.49376 4.11671 -2.49376 0.12469000000000019 C -2.49376 -3.86733 -3.99201 -5.36159 0 -5.36159 z" stroke-linecap="round" />
</g>
<g transform="matrix(-3.1850445558 0 0 -0.8140735993 236.2465107824 211.2175699218)" id="yR6fkR4JUGPU5Hk73JG8u"  >
<path style="stroke: rgb(37,35,37); stroke-width: 0; stroke-dasharray: none; stroke-linecap: butt; stroke-dashoffset: 0; stroke-linejoin: miter; stroke-miterlimit: 4; fill: rgb(193,190,190); fill-rule: nonzero; opacity: 1;" vector-effect="non-scaling-stroke"  transform=" translate(0, 0)" d="M -0.10395 -1.9118 C 4.37172 -1.9118 8.212060000000001 -15.05477 8.212060000000001 -10.579089999999999 C 8.212060000000001 -6.103419999999999 4.371730000000001 11.50851 -0.10394999999999932 11.50851 C -4.579619999999999 11.50851 -8.21206 7.87608 -8.21206 3.4003999999999994 C -8.21206 -1.0752700000000006 -4.57963 -1.911810000000001 -0.10394999999999932 -1.911810000000001 z" stroke-linecap="round" />
</g>
<g transform="matrix(3.247659481 0 0 -0.8140735994 265.8708486575 211.2175699212)" id="xJA5C0_sn3TZveqKntqdk"  >
<path style="stroke: rgb(37,35,37); stroke-width: 0; stroke-dasharray: none; stroke-linecap: butt; stroke-dashoffset: 0; stroke-linejoin: miter; stroke-miterlimit: 4; fill: rgb(193,190,190); fill-rule: nonzero; opacity: 1;" vector-effect="non-scaling-stroke"  transform=" translate(0, 0)" d="M -0.10395 -1.9118 C 4.37172 -1.9118 8.212060000000001 -15.05477 8.212060000000001 -10.579089999999999 C 8.212060000000001 -6.103419999999999 4.371730000000001 11.50851 -0.10394999999999932 11.50851 C -4.579619999999999 11.50851 -8.21206 7.87608 -8.21206 3.4003999999999994 C -8.21206 -1.0752700000000006 -4.57963 -1.911810000000001 -0.10394999999999932 -1.911810000000001 z" stroke-linecap="round" />
</g>
<g transform="matrix(1.5964282424 0 0 1.5964282424 224.3426520137 220.5863422167)" id="Hyy3lY1iuvS-ZhFfxV9wt"  >
<path style="stroke: rgb(37,35,37); stroke-width: 1; stroke-dasharray: none; stroke-linecap: butt; stroke-dashoffset: 0; stroke-linejoin: miter; stroke-miterlimit: 4; fill: rgb(255,255,255); fill-opacity: 0; fill-rule: nonzero; opacity: 1;" vector-effect="non-scaling-stroke"  transform=" translate(0, 0)" d="M 0 0" stroke-linecap="round" />
</g>
<g transform="matrix(4.3505105725 0 0 1.1505960344 250.1966661121 127.5868885134)" id="NEYusEpB-KqammBhrJN6L"  >
<path style="stroke: rgb(0,0,0); stroke-width: 0; stroke-dasharray: none; stroke-linecap: butt; stroke-dashoffset: 0; stroke-linejoin: miter; stroke-miterlimit: 4; fill: rgb(60,15,163); fill-rule: nonzero; opacity: 1;" vector-effect="non-scaling-stroke"  transform=" translate(0, 0)" d="M -12.05037 -4.95683 C -12.05037 -8.87448 -11.210429999999999 -12.050370000000001 -10.17432 -12.050370000000001 L 10.1743 -12.050370000000001 L 10.1743 -12.050370000000001 C 11.210420000000001 -12.050370000000001 12.05035 -8.874490000000002 12.05035 -4.956830000000001 L 12.05035 4.95682 L 12.05035 4.95682 C 12.05035 8.874469999999999 11.21041 12.05036 10.1743 12.05036 L -10.17432 12.05036 L -10.17432 12.05036 C -11.21044 12.05036 -12.05037 8.87448 -12.05037 4.95682 z" stroke-linecap="round" />
</g>
<g transform="matrix(1 0 0 1 250.8936700537 272.8150499664)" id="GHfN6Iq7Y0W8vjV_r56Qb"  >
<g style="" vector-effect="non-scaling-stroke"   >
		<g transform="matrix(1.6906049514 0 0 1 0 -27.8898791834)" id="TkCnmnIxbDI-j0php8qoR"  >
<path style="stroke: rgb(0,0,0); stroke-width: 0; stroke-dasharray: none; stroke-linecap: butt; stroke-dashoffset: 0; stroke-linejoin: miter; stroke-miterlimit: 4; fill: rgb(193,190,190); fill-rule: nonzero; opacity: 1;" vector-effect="non-scaling-stroke"  transform=" translate(-0.000005, -0.000005)" d="M -20.22727 -20.22727 L 20.227279999999997 -20.22727 L 20.227279999999997 20.227279999999997 L -20.22727 20.227279999999997 z" stroke-linecap="round" />
</g>
		<g transform="matrix(1 0 0 1 0 0)" id="D20J2zualdUhR0N1gO2nK"  >
<g style="" vector-effect="non-scaling-stroke"   >
		<g transform="matrix(-0.1423789346 4.0771992334 -2.9838042993 -0.1041967421 -45.9563600063 -0.0223714817)" id="c6tIioL5pTBjnXcURtP2y"  >
<path style="stroke: rgb(37,35,37); stroke-width: 0; stroke-dasharray: none; stroke-linecap: butt; stroke-dashoffset: 0; stroke-linejoin: miter; stroke-miterlimit: 4; fill: rgb(193,190,190); fill-rule: nonzero; opacity: 1;" vector-effect="non-scaling-stroke"  transform=" translate(0, 0)" d="M -3.82802 -5.80321 C 0.6476500000000001 -5.80321 14.907639999999999 -10.03958 14.907639999999999 -5.56391 C 14.907639999999999 -1.0882399999999999 0.6476499999999987 7.617100000000001 -3.8280200000000004 7.617100000000001 C -8.30369 7.617100000000001 -14.90764 4.4678 -14.90764 -0.007879999999999221 C -14.90764 -4.483549999999999 -8.30369 -5.80322 -3.8280200000000004 -5.80322 z" stroke-linecap="round" />
</g>
		<g transform="matrix(-0.1207359934 3.4574264861 -2.5119958178 -0.0877208269 -32.9239302301 7.8165703042)" id="9VxfNZ4YDHRbCKfRVgl0x"  >
<path style="stroke: rgb(37,35,37); stroke-width: 0; stroke-dasharray: none; stroke-linecap: butt; stroke-dashoffset: 0; stroke-linejoin: miter; stroke-miterlimit: 4; fill: rgb(193,190,190); fill-rule: nonzero; opacity: 1;" vector-effect="non-scaling-stroke"  transform=" translate(0, 0)" d="M -3.65061 -5.89721 C 0.8250600000000001 -5.89721 14.730229999999999 -9.8704 14.730229999999999 -5.39472 C 14.730229999999999 -0.9190500000000004 0.8250699999999984 7.5231 -3.6506100000000004 7.5231 C -8.126280000000001 7.5231 -14.73023 4.3738 -14.73023 -0.10187999999999953 C -14.73023 -4.57755 -8.126280000000001 -5.89722 -3.6506100000000004 -5.89722 z" stroke-linecap="round" />
</g>
		<g transform="matrix(0.1180501811 -3.3805148856 -2.4561156365 -0.085769448 -27.3719267749 7.9167788925)" id="l9MZn3ngfrCmRRWQ5fLxT"  >
<path style="stroke: rgb(37,35,37); stroke-width: 0; stroke-dasharray: none; stroke-linecap: butt; stroke-dashoffset: 0; stroke-linejoin: miter; stroke-miterlimit: 4; fill: rgb(193,190,190); fill-rule: nonzero; opacity: 1;" vector-effect="non-scaling-stroke"  transform=" translate(0, 0)" d="M -13.47667 -2.5201 C -11.17103 -3.9785899999999996 -7.17107 -4.13851 -4.1670300000000005 -4.13851 C 0.3086399999999996 -4.13851 14.85377 -9.136849999999999 14.85377 -4.66117 C 14.85377 -0.18550000000000022 0.03813000000000066 6.52336 -4.4375399999999985 6.52336 C -8.91321 6.52336 -14.853779999999999 5.809760000000001 -14.853779999999999 1.3340800000000002 C -14.853779999999999 -0.13754999999999984 -14.606169999999999 -1.8055999999999996 -13.476669999999999 -2.5200899999999997 z" stroke-linecap="round" />
</g>
		<g transform="matrix(0.1207359934 -3.4574264861 -2.5119958178 -0.0877208269 -24.7821455854 9.2240937189)" id="q45Smbjq6E8jcLD7b26-B"  >
<path style="stroke: rgb(37,35,37); stroke-width: 0; stroke-dasharray: none; stroke-linecap: butt; stroke-dashoffset: 0; stroke-linejoin: miter; stroke-miterlimit: 4; fill: rgb(193,190,190); fill-rule: nonzero; opacity: 1;" vector-effect="non-scaling-stroke"  transform=" translate(0, 0)" d="M -4.32302 -11.30436 C 0.1526500000000004 -11.30436 14.060659999999999 -13.94105 14.060659999999999 -9.46537 C 14.060659999999999 -4.9897 1.304829999999999 12.07582 -3.170840000000002 12.07582 C -7.646510000000002 12.07582 -14.060660000000002 -1.4018700000000006 -14.060660000000002 -5.87754 C -14.060660000000002 -10.35321 -8.798690000000002 -11.30435 -4.323020000000001 -11.30435 z" stroke-linecap="round" />
</g>
		<g transform="matrix(0.117606546 -3.3678108386 -2.5119958178 -0.0877208269 4.6369312055 10.2344978733)" id="rl0_SoHu_tTkMr6WfVi8O"  >
<path style="stroke: rgb(37,35,37); stroke-width: 0; stroke-dasharray: none; stroke-linecap: butt; stroke-dashoffset: 0; stroke-linejoin: miter; stroke-miterlimit: 4; fill: rgb(193,190,190); fill-rule: nonzero; opacity: 1;" vector-effect="non-scaling-stroke"  transform=" translate(0, 0)" d="M -3.40538 -6.60507 C 1.07029 -6.60507 14.485 -8.01359 14.485 -3.5379200000000006 C 14.485 0.9377499999999994 1.0702999999999996 6.81524 -3.405380000000001 6.81524 C -7.881050000000001 6.81524 -14.485000000000001 3.66594 -14.485000000000001 -0.8097399999999997 C -14.485000000000001 -5.28541 -7.881050000000001 -6.60508 -3.405380000000001 -6.60508 z" stroke-linecap="round" />
</g>
		<g transform="matrix(0.1207359934 -3.4574264861 -2.5119958178 -0.0877208269 20.9241908991 9.1923993965)" id="NMwCOW_mFpGa9DXh0UXbZ"  >
<path style="stroke: rgb(37,35,37); stroke-width: 0; stroke-dasharray: none; stroke-linecap: butt; stroke-dashoffset: 0; stroke-linejoin: miter; stroke-miterlimit: 4; fill: rgb(193,190,190); fill-rule: nonzero; opacity: 1;" vector-effect="non-scaling-stroke"  transform=" translate(0, 0)" d="M -4.1512 -5.80321 C 0.3244699999999998 -5.80321 14.58446 -10.03958 14.58446 -5.56391 C 14.58446 -1.0882399999999999 0.3244699999999998 7.617100000000001 -4.151199999999999 7.617100000000001 C -8.62687 7.617100000000001 -14.58447 4.4988600000000005 -14.58447 0.023190000000000488 C -14.58447 -4.4524799999999995 -8.62688 -5.803209999999999 -4.151199999999999 -5.803209999999999 z" stroke-linecap="round" />
</g>
		<g transform="matrix(0.1428996659 4.0921110278 2.9838042993 -0.1041967421 47.4528434721 0.7113888702)" id="MDqf6D_hwOiN6MKI2xt9V"  >
<path style="stroke: rgb(37,35,37); stroke-width: 0; stroke-dasharray: none; stroke-linecap: butt; stroke-dashoffset: 0; stroke-linejoin: miter; stroke-miterlimit: 4; fill: rgb(193,190,190); fill-rule: nonzero; opacity: 1;" vector-effect="non-scaling-stroke"  transform=" translate(0, 0)" d="M -3.6179 -6.29729 C 0.8577699999999999 -6.29729 14.697519999999999 -9.02956 14.697519999999999 -4.55389 C 14.697519999999999 -0.07821999999999996 0.8577699999999986 7.1230199999999995 -3.6179000000000006 7.1230199999999995 C -8.09357 7.1230199999999995 -14.69752 3.9737199999999993 -14.69752 -0.5019600000000004 C -14.69752 -4.97763 -8.09357 -6.297300000000001 -3.6179000000000006 -6.297300000000001 z" stroke-linecap="round" />
</g>
		<g transform="matrix(1.6906049514 0 0 1 1.7688724546 40.7472773278)" id="CaA7YDYgj5OUVLqY6AgPW"  >
<path style="stroke: rgb(0,0,0); stroke-width: 0; stroke-dasharray: none; stroke-linecap: butt; stroke-dashoffset: 0; stroke-linejoin: miter; stroke-miterlimit: 4; fill: rgb(193,190,190); fill-rule: nonzero; opacity: 1;" vector-effect="non-scaling-stroke"  transform=" translate(0, 0)" d="M -20.22727 -20.22727 L 20.227279999999997 -20.22727 L 20.227279999999997 20.227279999999997 L -20.22727 20.227279999999997 z" stroke-linecap="round" />
</g>
</g>
</g>
</g>
</g>
<g transform="matrix(0.7687943649 0.2059978292 -0.2059978292 0.7687943649 287.2578037119 363.2017483915)" id="3YLU0GsOGpjAkUn7wDzoI"  >
<path style="stroke: rgb(0,0,0); stroke-width: 0; stroke-dasharray: none; stroke-linecap: butt; stroke-dashoffset: 0; stroke-linejoin: miter; stroke-miterlimit: 4; fill: rgb(49,168,247); fill-rule: nonzero; opacity: 1;" vector-effect="non-scaling-stroke"  transform=" translate(-35.70263597, -33.9552238978)" d="M 35.70263 0 L 46.29402 22.96199 L 71.40527 25.93951 L 52.83963 43.10844 L 57.768119999999996 67.91045 L 35.702639999999995 55.55902 L 13.637159999999994 67.91045 L 18.565649999999994 43.10844 L 0.000009999999996068709 25.939510000000002 L 25.111259999999994 22.96199 z" stroke-linecap="round" />
</g>
<g transform="matrix(0.4166641167 0.1116448136 -0.1116448136 0.4166641167 246.421552995 421.576388105)" id="Ld4FqePlkJONXPcoezkad"  >
<path style="stroke: rgb(0,0,0); stroke-width: 0; stroke-dasharray: none; stroke-linecap: butt; stroke-dashoffset: 0; stroke-linejoin: miter; stroke-miterlimit: 4; fill: rgb(49,168,247); fill-rule: nonzero; opacity: 1;" vector-effect="non-scaling-stroke"  transform=" translate(-35.70264, -33.955225)" d="M 35.70263 0 L 46.29402 22.96199 L 71.40527 25.93951 L 52.83963 43.10844 L 57.768119999999996 67.91045 L 35.702639999999995 55.55902 L 13.637159999999994 67.91045 L 18.565649999999994 43.10844 L 0.000009999999996068709 25.939510000000002 L 25.111259999999994 22.96199 z" stroke-linecap="round" />
</g>
<g transform="matrix(0.4166641167 0.1116448136 -0.1116448136 0.4166641167 291.2561707726 414.7949359955)" id="9mxD2Cu1pTm0FRAgumKGn"  >
<path style="stroke: rgb(0,0,0); stroke-width: 0; stroke-dasharray: none; stroke-linecap: butt; stroke-dashoffset: 0; stroke-linejoin: miter; stroke-miterlimit: 4; fill: rgb(49,168,247); fill-rule: nonzero; opacity: 1;" vector-effect="non-scaling-stroke"  transform=" translate(-35.70264, -33.955225)" d="M 35.70263 0 L 46.29402 22.96199 L 71.40527 25.93951 L 52.83963 43.10844 L 57.768119999999996 67.91045 L 35.702639999999995 55.55902 L 13.637159999999994 67.91045 L 18.565649999999994 43.10844 L 0.000009999999996068709 25.939510000000002 L 25.111259999999994 22.96199 z" stroke-linecap="round" />
</g>
<g transform="matrix(0.7139066166 0 0 0.7139066166 214.9883547041 372.0092525091)" id="5yBYO3hffPlIldEh-QGsp"  >
<path style="stroke: rgb(0,0,0); stroke-width: 0; stroke-dasharray: none; stroke-linecap: butt; stroke-dashoffset: 0; stroke-linejoin: miter; stroke-miterlimit: 4; fill: rgb(188,183,88); fill-rule: nonzero; opacity: 1;" vector-effect="non-scaling-stroke"  transform=" translate(0, 0)" d="M 0 -44.02985 C 24.30447 -44.02985 44.02985 -24.30448 44.02985 0 C 44.02985 24.30447 24.30448 44.02985 0 44.02985 C -24.30447 44.02985 -44.02985 24.30448 -44.02985 0 C -44.02985 -24.30447 -24.30448 -44.02985 0 -44.02985 z" stroke-linecap="round" />
</g>
<g transform="matrix(0.9236731798 0 0 0.4618365983 210.0907488428 467.9671228608)" id="AeiXMTKLeLorx7ne8t43D"  >
<path style="stroke: rgb(255,255,255); stroke-width: 0; stroke-dasharray: none; stroke-linecap: butt; stroke-dashoffset: 0; stroke-linejoin: miter; stroke-miterlimit: 4; fill: rgb(108,59,244); fill-rule: nonzero; opacity: 1;" vector-effect="non-scaling-stroke"  transform=" translate(0, -0.000005)" d="M -19.87578 -7.32496 C -19.87578 -14.25658 -17.06618 -19.87577 -13.600369999999998 -19.87577 L 13.600370000000002 -19.87577 L 13.600370000000002 -19.87577 C 17.066180000000003 -19.87577 19.875780000000002 -14.25658 19.875780000000002 -7.324959999999999 L 19.875780000000002 7.32497 L 19.875780000000002 7.32497 C 19.875780000000002 14.25659 17.066180000000003 19.87578 13.600370000000002 19.87578 L -13.600369999999998 19.87578 L -13.600369999999998 19.87578 C -17.06618 19.87578 -19.87578 14.25659 -19.87578 7.324969999999999 z" stroke-linecap="round" />
</g>
<g transform="matrix(0.9236731798 0 0 0.4618365983 296.4815840478 467.9671228608)" id="Z8DpumjxxsVOoRJwaEOyS"  >
<path style="stroke: rgb(255,255,255); stroke-width: 0; stroke-dasharray: none; stroke-linecap: butt; stroke-dashoffset: 0; stroke-linejoin: miter; stroke-miterlimit: 4; fill: rgb(108,59,244); fill-rule: nonzero; opacity: 1;" vector-effect="non-scaling-stroke"  transform=" translate(0, -0.000005)" d="M -19.87578 -7.32496 C -19.87578 -14.25658 -17.06618 -19.87577 -13.600369999999998 -19.87577 L 13.600370000000002 -19.87577 L 13.600370000000002 -19.87577 C 17.066180000000003 -19.87577 19.875780000000002 -14.25658 19.875780000000002 -7.324959999999999 L 19.875780000000002 7.32497 L 19.875780000000002 7.32497 C 19.875780000000002 14.25659 17.066180000000003 19.87578 13.600370000000002 19.87578 L -13.600369999999998 19.87578 L -13.600369999999998 19.87578 C -17.06618 19.87578 -19.87578 14.25659 -19.87578 7.324969999999999 z" stroke-linecap="round" />
</g>
</svg>